<svg aria-roledescription="er" viewBox="0 0 340 876" style="max-width: 340px;" xmlns="http://www.w3.org/2000/svg" width="undefined" id="mermaid-svg" height="undefined"><style>#mermaid-svg{font-family:"trebuchet ms",verdana,arial,sans-serif;font-size:16px;fill:#333;}#mermaid-svg .error-icon{fill:#552222;}#mermaid-svg .error-text{fill:#552222;stroke:#552222;}#mermaid-svg .edge-thickness-normal{stroke-width:2px;}#mermaid-svg .edge-thickness-thick{stroke-width:3.5px;}#mermaid-svg .edge-pattern-solid{stroke-dasharray:0;}#mermaid-svg .edge-pattern-dashed{stroke-dasharray:3;}#mermaid-svg .edge-pattern-dotted{stroke-dasharray:2;}#mermaid-svg .marker{fill:#333333;stroke:#333333;}#mermaid-svg .marker.cross{stroke:#333333;}#mermaid-svg svg{font-family:"trebuchet ms",verdana,arial,sans-serif;font-size:16px;}#mermaid-svg .entityBox{fill:#ECECFF;stroke:#9370DB;}#mermaid-svg .attributeBoxOdd{fill:#ffffff;stroke:#9370DB;}#mermaid-svg .attributeBoxEven{fill:#f2f2f2;stroke:#9370DB;}#mermaid-svg .relationshipLabelBox{fill:hsl(80, 100%, 96.2745098039%);opacity:0.7;background-color:hsl(80, 100%, 96.2745098039%);}#mermaid-svg .relationshipLabelBox rect{opacity:0.5;}#mermaid-svg .relationshipLine{stroke:#333333;}#mermaid-svg .entityTitleText{text-anchor:middle;font-size:18px;fill:#333;}#mermaid-svg :root{--mermaid-font-family:"trebuchet ms",verdana,arial,sans-serif;}</style><g></g><defs><marker orient="auto" markerHeight="18" markerWidth="18" refY="9" refX="0" id="ONLY_ONE_START"><path d="M9,0 L9,18 M15,0 L15,18" fill="none" stroke="gray"></path></marker></defs><defs><marker orient="auto" markerHeight="18" markerWidth="18" refY="9" refX="18" id="ONLY_ONE_END"><path d="M3,0 L3,18 M9,0 L9,18" fill="none" stroke="gray"></path></marker></defs><defs><marker orient="auto" markerHeight="18" markerWidth="30" refY="9" refX="0" id="ZERO_OR_ONE_START"><circle r="6" cy="9" cx="21" fill="white" stroke="gray"></circle><path d="M9,0 L9,18" fill="none" stroke="gray"></path></marker></defs><defs><marker orient="auto" markerHeight="18" markerWidth="30" refY="9" refX="30" id="ZERO_OR_ONE_END"><circle r="6" cy="9" cx="9" fill="white" stroke="gray"></circle><path d="M21,0 L21,18" fill="none" stroke="gray"></path></marker></defs><defs><marker orient="auto" markerHeight="36" markerWidth="45" refY="18" refX="18" id="ONE_OR_MORE_START"><path d="M0,18 Q 18,0 36,18 Q 18,36 0,18 M42,9 L42,27" fill="none" stroke="gray"></path></marker></defs><defs><marker orient="auto" markerHeight="36" markerWidth="45" refY="18" refX="27" id="ONE_OR_MORE_END"><path d="M3,9 L3,27 M9,18 Q27,0 45,18 Q27,36 9,18" fill="none" stroke="gray"></path></marker></defs><defs><marker orient="auto" markerHeight="36" markerWidth="57" refY="18" refX="18" id="ZERO_OR_MORE_START"><circle r="6" cy="18" cx="48" fill="white" stroke="gray"></circle><path d="M0,18 Q18,0 36,18 Q18,36 0,18" fill="none" stroke="gray"></path></marker></defs><defs><marker orient="auto" markerHeight="36" markerWidth="57" refY="18" refX="39" id="ZERO_OR_MORE_END"><circle r="6" cy="18" cx="9" fill="white" stroke="gray"></circle><path d="M21,18 Q39,0 57,18 Q39,36 21,18" fill="none" stroke="gray"></path></marker></defs><path style="stroke: gray; fill: none;" marker-start="url(#ZERO_OR_ONE_START)" marker-end="url(#ONLY_ONE_END)" d="M170,520L170,528.3333333333334C170,536.6666666666666,170,553.3333333333334,170,570C170,586.6666666666666,170,603.3333333333334,170,611.6666666666666L170,620" class="er relationshipLine"></path><path style="stroke: gray; fill: none;" marker-start="url(#ZERO_OR_MORE_START)" marker-end="url(#ONLY_ONE_END)" d="M129.52380952380952,688L119.6031746031746,696.3333333333334C109.68253968253968,704.6666666666666,89.84126984126983,721.3333333333334,79.92063492063492,738C70,754.6666666666666,70,771.3333333333334,70,779.6666666666666L70,788" class="er relationshipLine"></path><path style="stroke: gray; fill: none;" marker-start="url(#ZERO_OR_MORE_START)" marker-end="url(#ONLY_ONE_END)" d="M210.47619047619048,688L220.3968253968254,696.3333333333334C230.31746031746033,704.6666666666666,250.15873015873015,721.3333333333334,260.07936507936506,738C270,754.6666666666666,270,771.3333333333334,270,779.6666666666666L270,788" class="er relationshipLine"></path><path style="stroke: gray; fill: none;" marker-start="url(#ZERO_OR_MORE_START)" marker-end="url(#ONLY_ONE_END)" d="M170,176L170,184.33333333333334C170,192.66666666666666,170,209.33333333333334,170,226C170,242.66666666666666,170,259.3333333333333,170,267.6666666666667L170,276" class="er relationshipLine"></path><g transform="translate(112.48287963867188,276 )" id="entity-User-6eaaf457-1339-4702-a73e-a071bdba182f"><rect height="244" width="115.03424072265625" y="0" x="0" class="er entityBox"></rect><text style="dominant-baseline: middle; text-anchor: middle; font-size: 12px;" transform="translate(57.517120361328125,12)" y="0" x="0" id="text-entity-User-6eaaf457-1339-4702-a73e-a071bdba182f" class="er entityLabel">User</text><rect height="22" width="54.095550537109375" y="24" x="0" class="er attributeBoxOdd"></rect><text style="dominant-baseline: middle; font-size: 10.2px;" transform="translate(5,35)" y="0" x="0" id="text-entity-User-6eaaf457-1339-4702-a73e-a071bdba182f-attr-1-type" class="er entityLabel">String</text><rect height="22" width="60.938690185546875" y="24" x="54.095550537109375" class="er attributeBoxOdd"></rect><text style="dominant-baseline: middle; font-size: 10.2px;" transform="translate(59.095550537109375,35)" y="0" x="0" id="text-entity-User-6eaaf457-1339-4702-a73e-a071bdba182f-attr-1-name" class="er entityLabel">id</text><rect height="22" width="54.095550537109375" y="46" x="0" class="er attributeBoxEven"></rect><text style="dominant-baseline: middle; font-size: 10.2px;" transform="translate(5,57)" y="0" x="0" id="text-entity-User-6eaaf457-1339-4702-a73e-a071bdba182f-attr-2-type" class="er entityLabel">String</text><rect height="22" width="60.938690185546875" y="46" x="54.095550537109375" class="er attributeBoxEven"></rect><text style="dominant-baseline: middle; font-size: 10.2px;" transform="translate(59.095550537109375,57)" y="0" x="0" id="text-entity-User-6eaaf457-1339-4702-a73e-a071bdba182f-attr-2-name" class="er entityLabel">idAuthZero</text><rect height="22" width="54.095550537109375" y="68" x="0" class="er attributeBoxOdd"></rect><text style="dominant-baseline: middle; font-size: 10.2px;" transform="translate(5,79)" y="0" x="0" id="text-entity-User-6eaaf457-1339-4702-a73e-a071bdba182f-attr-3-type" class="er entityLabel">String</text><rect height="22" width="60.938690185546875" y="68" x="54.095550537109375" class="er attributeBoxOdd"></rect><text style="dominant-baseline: middle; font-size: 10.2px;" transform="translate(59.095550537109375,79)" y="0" x="0" id="text-entity-User-6eaaf457-1339-4702-a73e-a071bdba182f-attr-3-name" class="er entityLabel">email</text><rect height="22" width="54.095550537109375" y="90" x="0" class="er attributeBoxEven"></rect><text style="dominant-baseline: middle; font-size: 10.2px;" transform="translate(5,101)" y="0" x="0" id="text-entity-User-6eaaf457-1339-4702-a73e-a071bdba182f-attr-4-type" class="er entityLabel">String</text><rect height="22" width="60.938690185546875" y="90" x="54.095550537109375" class="er attributeBoxEven"></rect><text style="dominant-baseline: middle; font-size: 10.2px;" transform="translate(59.095550537109375,101)" y="0" x="0" id="text-entity-User-6eaaf457-1339-4702-a73e-a071bdba182f-attr-4-name" class="er entityLabel">name</text><rect height="22" width="54.095550537109375" y="112" x="0" class="er attributeBoxOdd"></rect><text style="dominant-baseline: middle; font-size: 10.2px;" transform="translate(5,123)" y="0" x="0" id="text-entity-User-6eaaf457-1339-4702-a73e-a071bdba182f-attr-5-type" class="er entityLabel">String</text><rect height="22" width="60.938690185546875" y="112" x="54.095550537109375" class="er attributeBoxOdd"></rect><text style="dominant-baseline: middle; font-size: 10.2px;" transform="translate(59.095550537109375,123)" y="0" x="0" id="text-entity-User-6eaaf457-1339-4702-a73e-a071bdba182f-attr-5-name" class="er entityLabel">phone</text><rect height="22" width="54.095550537109375" y="134" x="0" class="er attributeBoxEven"></rect><text style="dominant-baseline: middle; font-size: 10.2px;" transform="translate(5,145)" y="0" x="0" id="text-entity-User-6eaaf457-1339-4702-a73e-a071bdba182f-attr-6-type" class="er entityLabel">String</text><rect height="22" width="60.938690185546875" y="134" x="54.095550537109375" class="er attributeBoxEven"></rect><text style="dominant-baseline: middle; font-size: 10.2px;" transform="translate(59.095550537109375,145)" y="0" x="0" id="text-entity-User-6eaaf457-1339-4702-a73e-a071bdba182f-attr-6-name" class="er entityLabel">password</text><rect height="22" width="54.095550537109375" y="156" x="0" class="er attributeBoxOdd"></rect><text style="dominant-baseline: middle; font-size: 10.2px;" transform="translate(5,167)" y="0" x="0" id="text-entity-User-6eaaf457-1339-4702-a73e-a071bdba182f-attr-7-type" class="er entityLabel">String</text><rect height="22" width="60.938690185546875" y="156" x="54.095550537109375" class="er attributeBoxOdd"></rect><text style="dominant-baseline: middle; font-size: 10.2px;" transform="translate(59.095550537109375,167)" y="0" x="0" id="text-entity-User-6eaaf457-1339-4702-a73e-a071bdba182f-attr-7-name" class="er entityLabel">image</text><rect height="22" width="54.095550537109375" y="178" x="0" class="er attributeBoxEven"></rect><text style="dominant-baseline: middle; font-size: 10.2px;" transform="translate(5,189)" y="0" x="0" id="text-entity-User-6eaaf457-1339-4702-a73e-a071bdba182f-attr-8-type" class="er entityLabel">Role</text><rect height="22" width="60.938690185546875" y="178" x="54.095550537109375" class="er attributeBoxEven"></rect><text style="dominant-baseline: middle; font-size: 10.2px;" transform="translate(59.095550537109375,189)" y="0" x="0" id="text-entity-User-6eaaf457-1339-4702-a73e-a071bdba182f-attr-8-name" class="er entityLabel">role</text><rect height="22" width="54.095550537109375" y="200" x="0" class="er attributeBoxOdd"></rect><text style="dominant-baseline: middle; font-size: 10.2px;" transform="translate(5,211)" y="0" x="0" id="text-entity-User-6eaaf457-1339-4702-a73e-a071bdba182f-attr-9-type" class="er entityLabel">DateTime</text><rect height="22" width="60.938690185546875" y="200" x="54.095550537109375" class="er attributeBoxOdd"></rect><text style="dominant-baseline: middle; font-size: 10.2px;" transform="translate(59.095550537109375,211)" y="0" x="0" id="text-entity-User-6eaaf457-1339-4702-a73e-a071bdba182f-attr-9-name" class="er entityLabel">createdAt</text><rect height="22" width="54.095550537109375" y="222" x="0" class="er attributeBoxEven"></rect><text style="dominant-baseline: middle; font-size: 10.2px;" transform="translate(5,233)" y="0" x="0" id="text-entity-User-6eaaf457-1339-4702-a73e-a071bdba182f-attr-10-type" class="er entityLabel">DateTime</text><rect height="22" width="60.938690185546875" y="222" x="54.095550537109375" class="er attributeBoxEven"></rect><text style="dominant-baseline: middle; font-size: 10.2px;" transform="translate(59.095550537109375,233)" y="0" x="0" id="text-entity-User-6eaaf457-1339-4702-a73e-a071bdba182f-attr-10-name" class="er entityLabel">updatedAt</text></g><g transform="translate(119.2787094116211,620 )" id="entity-UserConfig-3208468c-7e3a-42f9-8ad5-c52297fe69f3"><rect height="68" width="101.44258117675781" y="0" x="0" class="er entityBox"></rect><text style="dominant-baseline: middle; text-anchor: middle; font-size: 12px;" transform="translate(50.721290588378906,12)" y="0" x="0" id="text-entity-UserConfig-3208468c-7e3a-42f9-8ad5-c52297fe69f3" class="er entityLabel">UserConfig</text><rect height="22" width="61.79534912109375" y="24" x="0" class="er attributeBoxOdd"></rect><text style="dominant-baseline: middle; font-size: 10.2px;" transform="translate(5,35)" y="0" x="0" id="text-entity-UserConfig-3208468c-7e3a-42f9-8ad5-c52297fe69f3-attr-1-type" class="er entityLabel">String</text><rect height="22" width="39.64723205566406" y="24" x="61.79534912109375" class="er attributeBoxOdd"></rect><text style="dominant-baseline: middle; font-size: 10.2px;" transform="translate(66.79534912109375,35)" y="0" x="0" id="text-entity-UserConfig-3208468c-7e3a-42f9-8ad5-c52297fe69f3-attr-1-name" class="er entityLabel">id</text><rect height="22" width="61.79534912109375" y="46" x="0" class="er attributeBoxEven"></rect><text style="dominant-baseline: middle; font-size: 10.2px;" transform="translate(5,57)" y="0" x="0" id="text-entity-UserConfig-3208468c-7e3a-42f9-8ad5-c52297fe69f3-attr-2-type" class="er entityLabel">UserTheme</text><rect height="22" width="39.64723205566406" y="46" x="61.79534912109375" class="er attributeBoxEven"></rect><text style="dominant-baseline: middle; font-size: 10.2px;" transform="translate(66.79534912109375,57)" y="0" x="0" id="text-entity-UserConfig-3208468c-7e3a-42f9-8ad5-c52297fe69f3-attr-2-name" class="er entityLabel">theme</text></g><g transform="translate(220,788 )" id="entity-TimeZone-cec1f1a0-13e6-4a3b-9f48-2e4ae727103a"><rect height="68" width="100" y="0" x="0" class="er entityBox"></rect><text style="dominant-baseline: middle; text-anchor: middle; font-size: 12px;" transform="translate(50,12)" y="0" x="0" id="text-entity-TimeZone-cec1f1a0-13e6-4a3b-9f48-2e4ae727103a" class="er entityLabel">TimeZone</text><rect height="22" width="41.81159210205078" y="24" x="0" class="er attributeBoxOdd"></rect><text style="dominant-baseline: middle; font-size: 10.2px;" transform="translate(5,35)" y="0" x="0" id="text-entity-TimeZone-cec1f1a0-13e6-4a3b-9f48-2e4ae727103a-attr-1-type" class="er entityLabel">String</text><rect height="22" width="58.18840789794922" y="24" x="41.81159210205078" class="er attributeBoxOdd"></rect><text style="dominant-baseline: middle; font-size: 10.2px;" transform="translate(46.81159210205078,35)" y="0" x="0" id="text-entity-TimeZone-cec1f1a0-13e6-4a3b-9f48-2e4ae727103a-attr-1-name" class="er entityLabel">zone</text><rect height="22" width="41.81159210205078" y="46" x="0" class="er attributeBoxEven"></rect><text style="dominant-baseline: middle; font-size: 10.2px;" transform="translate(5,57)" y="0" x="0" id="text-entity-TimeZone-cec1f1a0-13e6-4a3b-9f48-2e4ae727103a-attr-2-type" class="er entityLabel">String</text><rect height="22" width="58.18840789794922" y="46" x="41.81159210205078" class="er attributeBoxEven"></rect><text style="dominant-baseline: middle; font-size: 10.2px;" transform="translate(46.81159210205078,57)" y="0" x="0" id="text-entity-TimeZone-cec1f1a0-13e6-4a3b-9f48-2e4ae727103a-attr-2-name" class="er entityLabel">utcOffset</text></g><g transform="translate(20,788 )" id="entity-Language-4672fe5b-7911-47fe-8aa4-855fb0ddbc06"><rect height="68" width="100" y="0" x="0" class="er entityBox"></rect><text style="dominant-baseline: middle; text-anchor: middle; font-size: 12px;" transform="translate(50,12)" y="0" x="0" id="text-entity-Language-4672fe5b-7911-47fe-8aa4-855fb0ddbc06" class="er entityLabel">Language</text><rect height="22" width="50.998573303222656" y="24" x="0" class="er attributeBoxOdd"></rect><text style="dominant-baseline: middle; font-size: 10.2px;" transform="translate(5,35)" y="0" x="0" id="text-entity-Language-4672fe5b-7911-47fe-8aa4-855fb0ddbc06-attr-1-type" class="er entityLabel">String</text><rect height="22" width="49.001426696777344" y="24" x="50.998573303222656" class="er attributeBoxOdd"></rect><text style="dominant-baseline: middle; font-size: 10.2px;" transform="translate(55.998573303222656,35)" y="0" x="0" id="text-entity-Language-4672fe5b-7911-47fe-8aa4-855fb0ddbc06-attr-1-name" class="er entityLabel">code</text><rect height="22" width="50.998573303222656" y="46" x="0" class="er attributeBoxEven"></rect><text style="dominant-baseline: middle; font-size: 10.2px;" transform="translate(5,57)" y="0" x="0" id="text-entity-Language-4672fe5b-7911-47fe-8aa4-855fb0ddbc06-attr-2-type" class="er entityLabel">String</text><rect height="22" width="49.001426696777344" y="46" x="50.998573303222656" class="er attributeBoxEven"></rect><text style="dominant-baseline: middle; font-size: 10.2px;" transform="translate(55.998573303222656,57)" y="0" x="0" id="text-entity-Language-4672fe5b-7911-47fe-8aa4-855fb0ddbc06-attr-2-name" class="er entityLabel">name</text></g><g transform="translate(86.16666412353516,20 )" id="entity-Transaction-abc24585-2134-4b56-aefc-ff2886a4fcec"><rect height="156" width="167.6666717529297" y="0" x="0" class="er entityBox"></rect><text style="dominant-baseline: middle; text-anchor: middle; font-size: 12px;" transform="translate(83.83333587646484,12)" y="0" x="0" id="text-entity-Transaction-abc24585-2134-4b56-aefc-ff2886a4fcec" class="er entityLabel">Transaction</text><rect height="22" width="84.68446350097656" y="24" x="0" class="er attributeBoxOdd"></rect><text style="dominant-baseline: middle; font-size: 10.2px;" transform="translate(5,35)" y="0" x="0" id="text-entity-Transaction-abc24585-2134-4b56-aefc-ff2886a4fcec-attr-1-type" class="er entityLabel">String</text><rect height="22" width="82.98220825195312" y="24" x="84.68446350097656" class="er attributeBoxOdd"></rect><text style="dominant-baseline: middle; font-size: 10.2px;" transform="translate(89.68446350097656,35)" y="0" x="0" id="text-entity-Transaction-abc24585-2134-4b56-aefc-ff2886a4fcec-attr-1-name" class="er entityLabel">id</text><rect height="22" width="84.68446350097656" y="46" x="0" class="er attributeBoxEven"></rect><text style="dominant-baseline: middle; font-size: 10.2px;" transform="translate(5,57)" y="0" x="0" id="text-entity-Transaction-abc24585-2134-4b56-aefc-ff2886a4fcec-attr-2-type" class="er entityLabel">String</text><rect height="22" width="82.98220825195312" y="46" x="84.68446350097656" class="er attributeBoxEven"></rect><text style="dominant-baseline: middle; font-size: 10.2px;" transform="translate(89.68446350097656,57)" y="0" x="0" id="text-entity-Transaction-abc24585-2134-4b56-aefc-ff2886a4fcec-attr-2-name" class="er entityLabel">concept</text><rect height="22" width="84.68446350097656" y="68" x="0" class="er attributeBoxOdd"></rect><text style="dominant-baseline: middle; font-size: 10.2px;" transform="translate(5,79)" y="0" x="0" id="text-entity-Transaction-abc24585-2134-4b56-aefc-ff2886a4fcec-attr-3-type" class="er entityLabel">Float</text><rect height="22" width="82.98220825195312" y="68" x="84.68446350097656" class="er attributeBoxOdd"></rect><text style="dominant-baseline: middle; font-size: 10.2px;" transform="translate(89.68446350097656,79)" y="0" x="0" id="text-entity-Transaction-abc24585-2134-4b56-aefc-ff2886a4fcec-attr-3-name" class="er entityLabel">amount</text><rect height="22" width="84.68446350097656" y="90" x="0" class="er attributeBoxEven"></rect><text style="dominant-baseline: middle; font-size: 10.2px;" transform="translate(5,101)" y="0" x="0" id="text-entity-Transaction-abc24585-2134-4b56-aefc-ff2886a4fcec-attr-4-type" class="er entityLabel">TypeTransaction</text><rect height="22" width="82.98220825195312" y="90" x="84.68446350097656" class="er attributeBoxEven"></rect><text style="dominant-baseline: middle; font-size: 10.2px;" transform="translate(89.68446350097656,101)" y="0" x="0" id="text-entity-Transaction-abc24585-2134-4b56-aefc-ff2886a4fcec-attr-4-name" class="er entityLabel">typeTransaction</text><rect height="22" width="84.68446350097656" y="112" x="0" class="er attributeBoxOdd"></rect><text style="dominant-baseline: middle; font-size: 10.2px;" transform="translate(5,123)" y="0" x="0" id="text-entity-Transaction-abc24585-2134-4b56-aefc-ff2886a4fcec-attr-5-type" class="er entityLabel">DateTime</text><rect height="22" width="82.98220825195312" y="112" x="84.68446350097656" class="er attributeBoxOdd"></rect><text style="dominant-baseline: middle; font-size: 10.2px;" transform="translate(89.68446350097656,123)" y="0" x="0" id="text-entity-Transaction-abc24585-2134-4b56-aefc-ff2886a4fcec-attr-5-name" class="er entityLabel">createdAt</text><rect height="22" width="84.68446350097656" y="134" x="0" class="er attributeBoxEven"></rect><text style="dominant-baseline: middle; font-size: 10.2px;" transform="translate(5,145)" y="0" x="0" id="text-entity-Transaction-abc24585-2134-4b56-aefc-ff2886a4fcec-attr-6-type" class="er entityLabel">DateTime</text><rect height="22" width="82.98220825195312" y="134" x="84.68446350097656" class="er attributeBoxEven"></rect><text style="dominant-baseline: middle; font-size: 10.2px;" transform="translate(89.68446350097656,145)" y="0" x="0" id="text-entity-Transaction-abc24585-2134-4b56-aefc-ff2886a4fcec-attr-6-name" class="er entityLabel">updatedAt</text></g><rect height="14" width="93.671875" y="563" x="123.1640625" class="er relationshipLabelBox"></rect><text style="text-anchor: middle; dominant-baseline: middle; font-size: 12px;" y="570" x="170" id="rel1" class="er relationshipLabel">UserToUserConfig</text><rect height="14" width="120.21875" y="723.1517333984375" x="25.164199829101562" class="er relationshipLabelBox"></rect><text style="text-anchor: middle; dominant-baseline: middle; font-size: 12px;" y="730.1517333984375" x="85.27357482910156" id="rel2" class="er relationshipLabel">LanguageToUserConfig</text><rect height="14" width="123.359375" y="723.1517333984375" x="193.04673767089844" class="er relationshipLabelBox"></rect><text style="text-anchor: middle; dominant-baseline: middle; font-size: 12px;" y="730.1517333984375" x="254.72642517089844" id="rel3" class="er relationshipLabel">TimeZoneToUserConfig</text><rect height="14" width="99.548828125" y="219" x="120.2255859375" class="er relationshipLabelBox"></rect><text style="text-anchor: middle; dominant-baseline: middle; font-size: 12px;" y="226" x="170" id="rel4" class="er relationshipLabel">TransactionToUser</text></svg>