<?xml version="1.0" encoding="UTF-8"?>
<svg version="1.1" viewBox="0 0 1600 1600" width="1280" height="1280" xmlns="http://www.w3.org/2000/svg">
<path transform="translate(669,374)" d="m0 0 5 1 25 14 22 13 56 32 26 15 24 14 26 15 28 16 78 45 24 14 23 13 17 10 26 15 8 5 1 2v147l-5 4-17 10-28 16-26 15-24 14-14 8-24 14-28 16-26 15-21 12-78 45-24 14-23 13-26 15-20 12-4 1-24-14-28-16-24-14-23-13-27-16-2-2-1-445 9-6 23-13 24-14 28-16 41-24zm1 34-23 13-24 14-21 12-15 9v2l11 6 24 14 23 13 24 14 52 30 42 24 24 14 78 45 6 3 1 2-6 2-23 13-24 14-26 15-17 10-4 2v65l6-2 26-15 24-14 21-12 24-14 21-12 24-14 23-13 24-14 19-11 21-12 8-5-4-4-18-10-27-16-25-14-24-14-28-16-97-56-21-12-24-14-28-16-26-15-17-10zm-99 74v396l27 15 45 26 11 7 3-1-1-328 11 6 28 16 26 15 35 20 5-1 15-9 36-21-2-4-10-5-22-13-28-16-156-90-21-12zm455 150-25 14-24 14-23 13-24 14-78 45-24 14-23 13-43 25-18 10-1-114-24-14-28-16-5-2-1 278 4-1 18-10 17-10 78-45 21-12 24-14 28-16 52-30 21-12 43-25 28-16 9-5 1-9v-89z" fill="#0C0C0E"/>
<path transform="translate(1030,1025)" d="m0 0h35l3 7 17 58 11 37 1 2 4-10 10-28 17-47 7-17 2-2h9l3 5 11 28 17 46 9 25 3-8 11-37 14-48 3-10 1-1h34l-3 11-44 143-3 4h-26l-3-3-11-30-14-39-6-17v-2h-2l-3 12-16 47-10 29-2 2-26 1-3-1-5-13-20-64-15-47-9-29z" fill="#0A0A0C"/>
<path transform="translate(60,1064)" d="m0 0 16 1 13 4 10 5 12 11 7 11 5 14 1 6v19l-4 15-6 11-9 10-9 7-10 5-12 3h-21l-12-4-8-4v46l-1 1h-32v-157l1-1h21l2 2 1 8 22-11zm-4 30-9 3-8 6-6 8-3 12 1 11 5 10 8 8 10 4h14l10-4 8-7 5-10 1-3v-14l-4-10-6-7-6-4-10-3z" fill="#0C0C0E"/>
<path transform="translate(1304,1064)" d="m0 0 18 1 12 4 10 6 4 2 1-9 1-1h23l1 1v114h-25l-2-9-6 4-11 6-12 3h-19l-11-3-14-7-10-9-7-9-7-17-1-5v-21l3-12 6-12 6-8h2l2-4 10-7 11-5 7-2zm1 30-10 4-7 6-5 9-2 6v12l4 10 6 8 8 5 6 2h13l11-4 7-6 5-9 1-3v-18l-5-10-7-7-8-4-4-1z" fill="#09090B"/>
<path transform="translate(528,1064)" d="m0 0 16 1 13 4 11 7 3 1 1-10h24l1 114-1 1h-25l-1-9-13 8-11 4-5 1h-20l-14-4-13-8-7-6-7-10-5-10-3-11v-24l4-13 7-13 11-11 14-8 11-3zm0 30-9 3-10 9-4 8-2 10 1 9 6 12 8 7 10 4h13l10-4 9-8 4-8 1-3v-15l-4-10-7-8-10-5-3-1z" fill="#09090B"/>
<path transform="translate(1535,1064)" d="m0 0 17 1 13 4 10 6 10 9 7 11 5 12 3 13v13l-3 1h-86l6 12 4 5 10 5 3 1h12l10-5 6-7 3-1h31l1 2-6 12-8 10-9 8-14 7-12 3h-19l-14-4-9-5-11-9-9-13-5-13-2-13v-9l2-12 5-12 6-10 10-10 10-6 10-4zm1 27-10 3-9 8-5 10 3 1h52l-1-5-7-9-5-4-7-3z" fill="#0C0C0E"/>
<path transform="translate(276,1064)" d="m0 0h10l17 3 12 6 10 8 9 12 5 11 2 9 1 20-1 1h-87l7 14 7 6 9 3h11l9-4 7-6 2-3h33l1 2-8 15-9 10-9 7-11 5-12 3h-19l-11-3-14-7-10-9-7-10-6-14-2-11v-14l4-17 6-11 8-10 11-8 13-6zm4 27-9 2-6 4-7 8-3 5v2l2 1h53l-3-8-8-9-9-4z" fill="#0C0C0E"/>
<path transform="translate(735,1064)" d="m0 0 16 1 13 4 11 6 12 12 8 16 3 12v18l-1 1h-86l4 10 8 9 10 4h12l12-6 6-7h32l1 3-8 15-13 13-8 5-14 5-6 1h-18l-11-3-14-7-10-9-7-9-5-11-3-11v-22l4-14 6-11 11-12 11-7 11-4zm-5 28-10 6-7 9-1 5 2 1h52l-1-5-4-6-7-7-8-3z" fill="#0B0B0D"/>
<path transform="translate(877,1065)" d="m0 0h16l9 2 11 6 8 10 5 11 2 9v79h-31l-1-1-1-74-4-8-5-4-2-1h-14l-8 4-6 7-3 8-1 7v61l-1 1h-31v-115h21l2 1 3 10 2 2 10-8 13-6z" fill="#0C0C0E"/>
<path transform="translate(345,1067)" d="m0 0h34l4 9 16 44 7 21 2-1 16-45 8-22 2-6h33l-1 6-13 32-20 51-10 24-1 2-28 1-3-3-12-28-14-35-15-37z" fill="#0D0D0F"/>
<path transform="translate(991,1036)" d="m0 0 2 1 1 30h30l1 1 1 24-1 1-30 1v47l2 7 5 4 7 2 17 1v27h-35l-12-5-7-6-7-11-2-7-1-10v-49l-20-1-1-4 4-7 12-13 12-12 1-2h2l2-4 13-13z" fill="#0E0E10"/>
<path transform="translate(626,1025)" d="m0 0h31v157l-29 1-2-1-1-4v-152z" fill="#18181A"/>
<path transform="translate(1403,1067)" d="m0 0h20l3 5 2 8 4-2 5-5 11-5 5-1h18l1 1v29h-14l-11 2-6 4-4 6-1 3-1 69-1 1h-31z" fill="#111113"/>
<path transform="translate(146,1067)" d="m0 0h20l2 2 2 9h4l8-6 8-4 5-1h20l1 2v27l-1 1h-13l-12 2-6 4-4 6-1 3-1 15v54l-1 1h-31z" fill="#0A0A0C"/>
</svg>
